0
SECTION
2
HEADER
9
$ACADVER
1
AC1015
9
$INSUNITS
70
4
0
ENDSEC
0
SECTION
2
ENTITIES
0
LINE
8
INVILUPPO_NOMINALE
62
8
10
-87.5
20
-116.24368670764585
30
0
11
-36.24368670764584
21
-167.5
31
0
0
LINE
8
INVILUPPO_NOMINALE
62
8
10
-36.24368670764584
20
-167.5
30
0
11
826.2436867076459
21
-167.5
31
0
0
LINE
8
INVILUPPO_NOMINALE
62
8
10
826.2436867076459
20
-167.5
30
0
11
877.5
21
-116.24368670764588
31
0
0
LINE
8
INVILUPPO_NOMINALE
62
8
10
877.5
20
-116.24368670764588
30
0
11
877.5
21
432.8318597736801
31
0
0
LINE
8
INVILUPPO_NOMINALE
62
8
10
877.5
20
432.8318597736801
30
0
11
701.2858414732608
21
747.5
31
0
0
LINE
8
INVILUPPO_NOMINALE
62
8
10
701.2858414732608
20
747.5
30
0
11
88.71415852673921
21
747.5
31
0
0
LINE
8
INVILUPPO_NOMINALE
62
8
10
88.71415852673921
20
747.5
30
0
11
-87.5
21
432.83185977368004
31
0
0
LINE
8
INVILUPPO_NOMINALE
62
8
10
-87.5
20
432.83185977368004
30
0
11
-87.5
21
-116.24368670764585
31
0
0
LINE
8
CAMERA_INTERNA_V4
62
5
10
0
20
-80
30
0
11
790
21
-80
31
0
0
LINE
8
CAMERA_INTERNA_V4
62
5
10
790
20
-80
30
0
11
790
21
410
31
0
0
LINE
8
CAMERA_INTERNA_V4
62
5
10
790
20
410
30
0
11
650.0
21
660
31
0
0
LINE
8
CAMERA_INTERNA_V4
62
5
10
650.0
20
660
30
0
11
140.0
21
660
31
0
0
LINE
8
CAMERA_INTERNA_V4
62
5
10
140.0
20
660
30
0
11
0
21
410
31
0
0
LINE
8
CAMERA_INTERNA_V4
62
5
10
0
20
410
30
0
11
0
21
-80
31
0
0
CIRCLE
8
DISCHI_NON_FORI_TAGLIO
62
30
10
210
20
205
30
0
40
160
0
CIRCLE
8
DISCHI_NON_FORI_TAGLIO
62
30
10
580
20
205
30
0
40
160
0
TEXT
8
NOTE_NON_ESECUTIVO
62
7
10
0
20
-290
30
0
40
18
1
C01 PIANTA - mm - NON PROFILI DI TAGLIO
0
LINE
8
SEZIONE_INVILUPPO
62
8
10
1212.5
20
-203.0
30
0
11
2177.5
21
-203.0
31
0
0
LINE
8
SEZIONE_INVILUPPO
62
8
10
2177.5
20
-203.0
30
0
11
2177.5
21
286.477525059068
31
0
0
LINE
8
SEZIONE_INVILUPPO
62
8
10
2177.5
20
286.477525059068
30
0
11
1695.0
21
389.0360660648536
31
0
0
LINE
8
SEZIONE_INVILUPPO
62
8
10
1695.0
20
389.0360660648536
30
0
11
1212.5
21
286.477525059068
31
0
0
LINE
8
SEZIONE_INVILUPPO
62
8
10
1212.5
20
286.477525059068
30
0
11
1212.5
21
-203.0
31
0
0
LINE
8
VOLTA_INTERNA_RIFERIMENTO
62
5
10
1300
20
190.0
30
0
11
1310
21
194.49927896170487
31
0
0
LINE
8
VOLTA_INTERNA_RIFERIMENTO
62
5
10
1310
20
194.49927896170487
30
0
11
1320
21
198.8831917961865
31
0
0
LINE
8
VOLTA_INTERNA_RIFERIMENTO
62
5
10
1320
20
198.8831917961865
30
0
11
1330
21
203.15173850344496
31
0
0
LINE
8
VOLTA_INTERNA_RIFERIMENTO
62
5
10
1330
20
203.15173850344496
30
0
11
1340
21
207.3049190834802
31
0
0
LINE
8
VOLTA_INTERNA_RIFERIMENTO
62
5
10
1340
20
207.3049190834802
30
0
11
1350
21
211.34273353629226
31
0
0
LINE
8
VOLTA_INTERNA_RIFERIMENTO
62
5
10
1350
20
211.34273353629226
30
0
11
1360
21
215.2651818618811
31
0
0
LINE
8
VOLTA_INTERNA_RIFERIMENTO
62
5
10
1360
20
215.2651818618811
30
0
11
1370
21
219.07226406024674
31
0
0
LINE
8
VOLTA_INTERNA_RIFERIMENTO
62
5
10
1370
20
219.07226406024674
30
0
11
1380
21
222.7639801313892
31
0
0
LINE
8
VOLTA_INTERNA_RIFERIMENTO
62
5
10
1380
20
222.7639801313892
30
0
11
1390
21
226.34033007530843
31
0
0
LINE
8
VOLTA_INTERNA_RIFERIMENTO
62
5
10
1390
20
226.34033007530843
30
0
11
1400
21
229.8013138920045
31
0
0
LINE
8
VOLTA_INTERNA_RIFERIMENTO
62
5
10
1400
20
229.8013138920045
30
0
11
1410
21
233.14693158147733
31
0
0
LINE
8
VOLTA_INTERNA_RIFERIMENTO
62
5
10
1410
20
233.14693158147733
30
0
11
1420
21
236.37718314372697
31
0
0
LINE
8
VOLTA_INTERNA_RIFERIMENTO
62
5
10
1420
20
236.37718314372697
30
0
11
1430
21
239.4920685787534
31
0
0
LINE
8
VOLTA_INTERNA_RIFERIMENTO
62
5
10
1430
20
239.4920685787534
30
0
11
1440
21
242.49158788655663
31
0
0
LINE
8
VOLTA_INTERNA_RIFERIMENTO
62
5
10
1440
20
242.49158788655663
30
0
11
1450
21
245.3757410671367
31
0
0
LINE
8
VOLTA_INTERNA_RIFERIMENTO
62
5
10
1450
20
245.3757410671367
30
0
11
1460
21
248.1445281204935
31
0
0
LINE
8
VOLTA_INTERNA_RIFERIMENTO
62
5
10
1460
20
248.1445281204935
30
0
11
1470
21
250.79794904662714
31
0
0
LINE
8
VOLTA_INTERNA_RIFERIMENTO
62
5
10
1470
20
250.79794904662714
30
0
11
1480
21
253.33600384553756
31
0
0
LINE
8
VOLTA_INTERNA_RIFERIMENTO
62
5
10
1480
20
253.33600384553756
30
0
11
1490
21
255.7586925172248
31
0
0
LINE
8
VOLTA_INTERNA_RIFERIMENTO
62
5
10
1490
20
255.7586925172248
30
0
11
1500
21
258.06601506168886
31
0
0
LINE
8
VOLTA_INTERNA_RIFERIMENTO
62
5
10
1500
20
258.06601506168886
30
0
11
1510
21
260.2579714789297
31
0
0
LINE
8
VOLTA_INTERNA_RIFERIMENTO
62
5
10
1510
20
260.2579714789297
30
0
11
1520
21
262.3345617689473
31
0
0
LINE
8
VOLTA_INTERNA_RIFERIMENTO
62
5
10
1520
20
262.3345617689473
30
0
11
1530
21
264.2957859317417
31
0
0
LINE
8
VOLTA_INTERNA_RIFERIMENTO
62
5
10
1530
20
264.2957859317417
30
0
11
1540
21
266.1416439673129
31
0
0
LINE
8
VOLTA_INTERNA_RIFERIMENTO
62
5
10
1540
20
266.1416439673129
30
0
11
1550
21
267.87213587566094
31
0
0
LINE
8
VOLTA_INTERNA_RIFERIMENTO
62
5
10
1550
20
267.87213587566094
30
0
11
1560
21
269.4872616567858
31
0
0
LINE
8
VOLTA_INTERNA_RIFERIMENTO
62
5
10
1560
20
269.4872616567858
30
0
11
1570
21
270.9870213106874
31
0
0
LINE
8
VOLTA_INTERNA_RIFERIMENTO
62
5
10
1570
20
270.9870213106874
30
0
11
1580
21
272.3714148373658
31
0
0
LINE
8
VOLTA_INTERNA_RIFERIMENTO
62
5
10
1580
20
272.3714148373658
30
0
11
1590
21
273.640442236821
31
0
0
LINE
8
VOLTA_INTERNA_RIFERIMENTO
62
5
10
1590
20
273.640442236821
30
0
11
1600
21
274.79410350905306
31
0
0
LINE
8
VOLTA_INTERNA_RIFERIMENTO
62
5
10
1600
20
274.79410350905306
30
0
11
1610
21
275.8323986540619
31
0
0
LINE
8
VOLTA_INTERNA_RIFERIMENTO
62
5
10
1610
20
275.8323986540619
30
0
11
1620
21
276.75532767184745
31
0
0
LINE
8
VOLTA_INTERNA_RIFERIMENTO
62
5
10
1620
20
276.75532767184745
30
0
11
1630
21
277.56289056240985
31
0
0
LINE
8
VOLTA_INTERNA_RIFERIMENTO
62
5
10
1630
20
277.56289056240985
30
0
11
1640
21
278.25508732574906
31
0
0
LINE
8
VOLTA_INTERNA_RIFERIMENTO
62
5
10
1640
20
278.25508732574906
30
0
11
1650
21
278.8319179618651
31
0
0
LINE
8
VOLTA_INTERNA_RIFERIMENTO
62
5
10
1650
20
278.8319179618651
30
0
11
1660
21
279.2933824707579
31
0
0
LINE
8
VOLTA_INTERNA_RIFERIMENTO
62
5
10
1660
20
279.2933824707579
30
0
11
1670
21
279.6394808524275
31
0
0
LINE
8
VOLTA_INTERNA_RIFERIMENTO
62
5
10
1670
20
279.6394808524275
30
0
11
1680
21
279.8702131068739
31
0
0
LINE
8
VOLTA_INTERNA_RIFERIMENTO
62
5
10
1680
20
279.8702131068739
30
0
11
1690
21
279.9855792340971
31
0
0
LINE
8
VOLTA_INTERNA_RIFERIMENTO
62
5
10
1690
20
279.9855792340971
30
0
11
1700
21
279.9855792340971
31
0
0
LINE
8
VOLTA_INTERNA_RIFERIMENTO
62
5
10
1700
20
279.9855792340971
30
0
11
1710
21
279.8702131068739
31
0
0
LINE
8
VOLTA_INTERNA_RIFERIMENTO
62
5
10
1710
20
279.8702131068739
30
0
11
1720
21
279.6394808524275
31
0
0
LINE
8
VOLTA_INTERNA_RIFERIMENTO
62
5
10
1720
20
279.6394808524275
30
0
11
1730
21
279.2933824707579
31
0
0
LINE
8
VOLTA_INTERNA_RIFERIMENTO
62
5
10
1730
20
279.2933824707579
30
0
11
1740
21
278.8319179618651
31
0
0
LINE
8
VOLTA_INTERNA_RIFERIMENTO
62
5
10
1740
20
278.8319179618651
30
0
11
1750
21
278.25508732574906
31
0
0
LINE
8
VOLTA_INTERNA_RIFERIMENTO
62
5
10
1750
20
278.25508732574906
30
0
11
1760
21
277.56289056240985
31
0
0
LINE
8
VOLTA_INTERNA_RIFERIMENTO
62
5
10
1760
20
277.56289056240985
30
0
11
1770
21
276.75532767184745
31
0
0
LINE
8
VOLTA_INTERNA_RIFERIMENTO
62
5
10
1770
20
276.75532767184745
30
0
11
1780
21
275.8323986540619
31
0
0
LINE
8
VOLTA_INTERNA_RIFERIMENTO
62
5
10
1780
20
275.8323986540619
30
0
11
1790
21
274.79410350905306
31
0
0
LINE
8
VOLTA_INTERNA_RIFERIMENTO
62
5
10
1790
20
274.79410350905306
30
0
11
1800
21
273.640442236821
31
0
0
LINE
8
VOLTA_INTERNA_RIFERIMENTO
62
5
10
1800
20
273.640442236821
30
0
11
1810
21
272.3714148373658
31
0
0
LINE
8
VOLTA_INTERNA_RIFERIMENTO
62
5
10
1810
20
272.3714148373658
30
0
11
1820
21
270.9870213106874
31
0
0
LINE
8
VOLTA_INTERNA_RIFERIMENTO
62
5
10
1820
20
270.9870213106874
30
0
11
1830
21
269.4872616567858
31
0
0
LINE
8
VOLTA_INTERNA_RIFERIMENTO
62
5
10
1830
20
269.4872616567858
30
0
11
1840
21
267.87213587566094
31
0
0
LINE
8
VOLTA_INTERNA_RIFERIMENTO
62
5
10
1840
20
267.87213587566094
30
0
11
1850
21
266.1416439673129
31
0
0
LINE
8
VOLTA_INTERNA_RIFERIMENTO
62
5
10
1850
20
266.1416439673129
30
0
11
1860
21
264.2957859317417
31
0
0
LINE
8
VOLTA_INTERNA_RIFERIMENTO
62
5
10
1860
20
264.2957859317417
30
0
11
1870
21
262.3345617689473
31
0
0
LINE
8
VOLTA_INTERNA_RIFERIMENTO
62
5
10
1870
20
262.3345617689473
30
0
11
1880
21
260.2579714789297
31
0
0
LINE
8
VOLTA_INTERNA_RIFERIMENTO
62
5
10
1880
20
260.2579714789297
30
0
11
1890
21
258.06601506168886
31
0
0
LINE
8
VOLTA_INTERNA_RIFERIMENTO
62
5
10
1890
20
258.06601506168886
30
0
11
1900
21
255.7586925172248
31
0
0
LINE
8
VOLTA_INTERNA_RIFERIMENTO
62
5
10
1900
20
255.7586925172248
30
0
11
1910
21
253.33600384553756
31
0
0
LINE
8
VOLTA_INTERNA_RIFERIMENTO
62
5
10
1910
20
253.33600384553756
30
0
11
1920
21
250.79794904662714
31
0
0
LINE
8
VOLTA_INTERNA_RIFERIMENTO
62
5
10
1920
20
250.79794904662714
30
0
11
1930
21
248.1445281204935
31
0
0
LINE
8
VOLTA_INTERNA_RIFERIMENTO
62
5
10
1930
20
248.1445281204935
30
0
11
1940
21
245.3757410671367
31
0
0
LINE
8
VOLTA_INTERNA_RIFERIMENTO
62
5
10
1940
20
245.3757410671367
30
0
11
1950
21
242.49158788655663
31
0
0
LINE
8
VOLTA_INTERNA_RIFERIMENTO
62
5
10
1950
20
242.49158788655663
30
0
11
1960
21
239.4920685787534
31
0
0
LINE
8
VOLTA_INTERNA_RIFERIMENTO
62
5
10
1960
20
239.4920685787534
30
0
11
1970
21
236.37718314372697
31
0
0
LINE
8
VOLTA_INTERNA_RIFERIMENTO
62
5
10
1970
20
236.37718314372697
30
0
11
1980
21
233.14693158147733
31
0
0
LINE
8
VOLTA_INTERNA_RIFERIMENTO
62
5
10
1980
20
233.14693158147733
30
0
11
1990
21
229.8013138920045
31
0
0
LINE
8
VOLTA_INTERNA_RIFERIMENTO
62
5
10
1990
20
229.8013138920045
30
0
11
2000
21
226.34033007530843
31
0
0
LINE
8
VOLTA_INTERNA_RIFERIMENTO
62
5
10
2000
20
226.34033007530843
30
0
11
2010
21
222.7639801313892
31
0
0
LINE
8
VOLTA_INTERNA_RIFERIMENTO
62
5
10
2010
20
222.7639801313892
30
0
11
2020
21
219.07226406024674
31
0
0
LINE
8
VOLTA_INTERNA_RIFERIMENTO
62
5
10
2020
20
219.07226406024674
30
0
11
2030
21
215.2651818618811
31
0
0
LINE
8
VOLTA_INTERNA_RIFERIMENTO
62
5
10
2030
20
215.2651818618811
30
0
11
2040
21
211.34273353629226
31
0
0
LINE
8
VOLTA_INTERNA_RIFERIMENTO
62
5
10
2040
20
211.34273353629226
30
0
11
2050
21
207.3049190834802
31
0
0
LINE
8
VOLTA_INTERNA_RIFERIMENTO
62
5
10
2050
20
207.3049190834802
30
0
11
2060
21
203.15173850344496
31
0
0
LINE
8
VOLTA_INTERNA_RIFERIMENTO
62
5
10
2060
20
203.15173850344496
30
0
11
2070
21
198.8831917961865
31
0
0
LINE
8
VOLTA_INTERNA_RIFERIMENTO
62
5
10
2070
20
198.8831917961865
30
0
11
2080
21
194.49927896170487
31
0
0
LINE
8
VOLTA_INTERNA_RIFERIMENTO
62
5
10
2080
20
194.49927896170487
30
0
11
2090
21
190.0
31
0
0
TEXT
8
NOTE_NON_ESECUTIVO
62
7
10
1300
20
-290
30
0
40
18
1
C01 SEZIONE y=205 - RISERVE DI INGOMBRO
0
LINE
8
SEZIONE_INVILUPPO
62
8
10
2632.5
20
-203.0
30
0
11
3547.5
21
-203.0
31
0
0
LINE
8
SEZIONE_INVILUPPO
62
8
10
3547.5
20
-203.0
30
0
11
3547.5
21
330.51814855409214
31
0
0
LINE
8
SEZIONE_INVILUPPO
62
8
10
3547.5
20
330.51814855409214
30
0
11
3514.2533651127424
21
349.71310215589955
31
0
0
LINE
8
SEZIONE_INVILUPPO
62
8
10
3514.2533651127424
20
349.71310215589955
30
0
11
2665.7466348872576
21
349.7131021558996
31
0
0
LINE
8
SEZIONE_INVILUPPO
62
8
10
2665.7466348872576
20
349.7131021558996
30
0
11
2632.5
21
330.51814855409225
31
0
0
LINE
8
SEZIONE_INVILUPPO
62
8
10
2632.5
20
330.51814855409225
30
0
11
2632.5
21
-203.0
31
0
0
LINE
8
VOLTA_INTERNA_RIFERIMENTO
62
5
10
2720
20
260.2579714789297
30
0
11
2730
21
260.2579714789297
31
0
0
LINE
8
VOLTA_INTERNA_RIFERIMENTO
62
5
10
2730
20
260.2579714789297
30
0
11
2740
21
260.2579714789297
31
0
0
LINE
8
VOLTA_INTERNA_RIFERIMENTO
62
5
10
2740
20
260.2579714789297
30
0
11
2750
21
260.2579714789297
31
0
0
LINE
8
VOLTA_INTERNA_RIFERIMENTO
62
5
10
2750
20
260.2579714789297
30
0
11
2760
21
260.2579714789297
31
0
0
LINE
8
VOLTA_INTERNA_RIFERIMENTO
62
5
10
2760
20
260.2579714789297
30
0
11
2770
21
260.2579714789297
31
0
0
LINE
8
VOLTA_INTERNA_RIFERIMENTO
62
5
10
2770
20
260.2579714789297
30
0
11
2780
21
260.2579714789297
31
0
0
LINE
8
VOLTA_INTERNA_RIFERIMENTO
62
5
10
2780
20
260.2579714789297
30
0
11
2790
21
260.2579714789297
31
0
0
LINE
8
VOLTA_INTERNA_RIFERIMENTO
62
5
10
2790
20
260.2579714789297
30
0
11
2800
21
260.2579714789297
31
0
0
LINE
8
VOLTA_INTERNA_RIFERIMENTO
62
5
10
2800
20
260.2579714789297
30
0
11
2810
21
260.2579714789297
31
0
0
LINE
8
VOLTA_INTERNA_RIFERIMENTO
62
5
10
2810
20
260.2579714789297
30
0
11
2820
21
260.2579714789297
31
0
0
LINE
8
VOLTA_INTERNA_RIFERIMENTO
62
5
10
2820
20
260.2579714789297
30
0
11
2830
21
260.2579714789297
31
0
0
LINE
8
VOLTA_INTERNA_RIFERIMENTO
62
5
10
2830
20
260.2579714789297
30
0
11
2840
21
260.2579714789297
31
0
0
LINE
8
VOLTA_INTERNA_RIFERIMENTO
62
5
10
2840
20
260.2579714789297
30
0
11
2850
21
260.2579714789297
31
0
0
LINE
8
VOLTA_INTERNA_RIFERIMENTO
62
5
10
2850
20
260.2579714789297
30
0
11
2860
21
260.2579714789297
31
0
0
LINE
8
VOLTA_INTERNA_RIFERIMENTO
62
5
10
2860
20
260.2579714789297
30
0
11
2870
21
260.2579714789297
31
0
0
LINE
8
VOLTA_INTERNA_RIFERIMENTO
62
5
10
2870
20
260.2579714789297
30
0
11
2880
21
260.2579714789297
31
0
0
LINE
8
VOLTA_INTERNA_RIFERIMENTO
62
5
10
2880
20
260.2579714789297
30
0
11
2890
21
260.2579714789297
31
0
0
LINE
8
VOLTA_INTERNA_RIFERIMENTO
62
5
10
2890
20
260.2579714789297
30
0
11
2900
21
260.2579714789297
31
0
0
LINE
8
VOLTA_INTERNA_RIFERIMENTO
62
5
10
2900
20
260.2579714789297
30
0
11
2910
21
260.2579714789297
31
0
0
LINE
8
VOLTA_INTERNA_RIFERIMENTO
62
5
10
2910
20
260.2579714789297
30
0
11
2920
21
260.2579714789297
31
0
0
LINE
8
VOLTA_INTERNA_RIFERIMENTO
62
5
10
2920
20
260.2579714789297
30
0
11
2930
21
260.2579714789297
31
0
0
LINE
8
VOLTA_INTERNA_RIFERIMENTO
62
5
10
2930
20
260.2579714789297
30
0
11
2940
21
260.2579714789297
31
0
0
LINE
8
VOLTA_INTERNA_RIFERIMENTO
62
5
10
2940
20
260.2579714789297
30
0
11
2950
21
260.2579714789297
31
0
0
LINE
8
VOLTA_INTERNA_RIFERIMENTO
62
5
10
2950
20
260.2579714789297
30
0
11
2960
21
260.2579714789297
31
0
0
LINE
8
VOLTA_INTERNA_RIFERIMENTO
62
5
10
2960
20
260.2579714789297
30
0
11
2970
21
260.2579714789297
31
0
0
LINE
8
VOLTA_INTERNA_RIFERIMENTO
62
5
10
2970
20
260.2579714789297
30
0
11
2980
21
260.2579714789297
31
0
0
LINE
8
VOLTA_INTERNA_RIFERIMENTO
62
5
10
2980
20
260.2579714789297
30
0
11
2990
21
260.2579714789297
31
0
0
LINE
8
VOLTA_INTERNA_RIFERIMENTO
62
5
10
2990
20
260.2579714789297
30
0
11
3000
21
260.2579714789297
31
0
0
LINE
8
VOLTA_INTERNA_RIFERIMENTO
62
5
10
3000
20
260.2579714789297
30
0
11
3010
21
260.2579714789297
31
0
0
LINE
8
VOLTA_INTERNA_RIFERIMENTO
62
5
10
3010
20
260.2579714789297
30
0
11
3020
21
260.2579714789297
31
0
0
LINE
8
VOLTA_INTERNA_RIFERIMENTO
62
5
10
3020
20
260.2579714789297
30
0
11
3030
21
260.2579714789297
31
0
0
LINE
8
VOLTA_INTERNA_RIFERIMENTO
62
5
10
3030
20
260.2579714789297
30
0
11
3040
21
260.2579714789297
31
0
0
LINE
8
VOLTA_INTERNA_RIFERIMENTO
62
5
10
3040
20
260.2579714789297
30
0
11
3050
21
260.2579714789297
31
0
0
LINE
8
VOLTA_INTERNA_RIFERIMENTO
62
5
10
3050
20
260.2579714789297
30
0
11
3060
21
260.2579714789297
31
0
0
LINE
8
VOLTA_INTERNA_RIFERIMENTO
62
5
10
3060
20
260.2579714789297
30
0
11
3070
21
260.2579714789297
31
0
0
LINE
8
VOLTA_INTERNA_RIFERIMENTO
62
5
10
3070
20
260.2579714789297
30
0
11
3080
21
260.2579714789297
31
0
0
LINE
8
VOLTA_INTERNA_RIFERIMENTO
62
5
10
3080
20
260.2579714789297
30
0
11
3090
21
260.2579714789297
31
0
0
LINE
8
VOLTA_INTERNA_RIFERIMENTO
62
5
10
3090
20
260.2579714789297
30
0
11
3100
21
260.2579714789297
31
0
0
LINE
8
VOLTA_INTERNA_RIFERIMENTO
62
5
10
3100
20
260.2579714789297
30
0
11
3110
21
260.2579714789297
31
0
0
LINE
8
VOLTA_INTERNA_RIFERIMENTO
62
5
10
3110
20
260.2579714789297
30
0
11
3120
21
260.2579714789297
31
0
0
LINE
8
VOLTA_INTERNA_RIFERIMENTO
62
5
10
3120
20
260.2579714789297
30
0
11
3130
21
260.2579714789297
31
0
0
LINE
8
VOLTA_INTERNA_RIFERIMENTO
62
5
10
3130
20
260.2579714789297
30
0
11
3140
21
260.2579714789297
31
0
0
LINE
8
VOLTA_INTERNA_RIFERIMENTO
62
5
10
3140
20
260.2579714789297
30
0
11
3150
21
260.2579714789297
31
0
0
LINE
8
VOLTA_INTERNA_RIFERIMENTO
62
5
10
3150
20
260.2579714789297
30
0
11
3160
21
260.2579714789297
31
0
0
LINE
8
VOLTA_INTERNA_RIFERIMENTO
62
5
10
3160
20
260.2579714789297
30
0
11
3170
21
260.2579714789297
31
0
0
LINE
8
VOLTA_INTERNA_RIFERIMENTO
62
5
10
3170
20
260.2579714789297
30
0
11
3180
21
260.2579714789297
31
0
0
LINE
8
VOLTA_INTERNA_RIFERIMENTO
62
5
10
3180
20
260.2579714789297
30
0
11
3190
21
260.2579714789297
31
0
0
LINE
8
VOLTA_INTERNA_RIFERIMENTO
62
5
10
3190
20
260.2579714789297
30
0
11
3200
21
260.2579714789297
31
0
0
LINE
8
VOLTA_INTERNA_RIFERIMENTO
62
5
10
3200
20
260.2579714789297
30
0
11
3210
21
260.2579714789297
31
0
0
LINE
8
VOLTA_INTERNA_RIFERIMENTO
62
5
10
3210
20
260.2579714789297
30
0
11
3220
21
259.68606437306653
31
0
0
LINE
8
VOLTA_INTERNA_RIFERIMENTO
62
5
10
3220
20
259.68606437306653
30
0
11
3230
21
259.088941092897
31
0
0
LINE
8
VOLTA_INTERNA_RIFERIMENTO
62
5
10
3230
20
259.088941092897
30
0
11
3240
21
258.4650971327066
31
0
0
LINE
8
VOLTA_INTERNA_RIFERIMENTO
62
5
10
3240
20
258.4650971327066
30
0
11
3250
21
257.8129140833055
31
0
0
LINE
8
VOLTA_INTERNA_RIFERIMENTO
62
5
10
3250
20
257.8129140833055
30
0
11
3260
21
257.13064912502136
31
0
0
LINE
8
VOLTA_INTERNA_RIFERIMENTO
62
5
10
3260
20
257.13064912502136
30
0
11
3270
21
256.4164233723064
31
0
0
LINE
8
VOLTA_INTERNA_RIFERIMENTO
62
5
10
3270
20
256.4164233723064
30
0
11
3280
21
255.6682089242398
31
0
0
LINE
8
VOLTA_INTERNA_RIFERIMENTO
62
5
10
3280
20
255.6682089242398
30
0
11
3290
21
254.88381445407225
31
0
0
LINE
8
VOLTA_INTERNA_RIFERIMENTO
62
5
10
3290
20
254.88381445407225
30
0
11
3300
21
254.06086914635858
31
0
0
LINE
8
VOLTA_INTERNA_RIFERIMENTO
62
5
10
3300
20
254.06086914635858
30
0
11
3310
21
253.19680476153184
31
0
0
LINE
8
VOLTA_INTERNA_RIFERIMENTO
62
5
10
3310
20
253.19680476153184
30
0
11
3320
21
252.28883557421688
31
0
0
LINE
8
VOLTA_INTERNA_RIFERIMENTO
62
5
10
3320
20
252.28883557421688
30
0
11
3330
21
251.33393589224818
31
0
0
LINE
8
VOLTA_INTERNA_RIFERIMENTO
62
5
10
3330
20
251.33393589224818
30
0
11
3340
21
250.32881481712667
31
0
0
LINE
8
VOLTA_INTERNA_RIFERIMENTO
62
5
10
3340
20
250.32881481712667
30
0
11
3350
21
249.26988785217543
31
0
0
LINE
8
VOLTA_INTERNA_RIFERIMENTO
62
5
10
3350
20
249.26988785217543
30
0
11
3360
21
248.15324490028019
31
0
0
LINE
8
VOLTA_INTERNA_RIFERIMENTO
62
5
10
3360
20
248.15324490028019
30
0
11
3370
21
246.9746141168206
31
0
0
LINE
8
VOLTA_INTERNA_RIFERIMENTO
62
5
10
3370
20
246.9746141168206
30
0
11
3380
21
245.72932099273655
31
0
0
LINE
8
VOLTA_INTERNA_RIFERIMENTO
62
5
10
3380
20
245.72932099273655
30
0
11
3390
21
244.41224193459686
31
0
0
LINE
8
VOLTA_INTERNA_RIFERIMENTO
62
5
10
3390
20
244.41224193459686
30
0
11
3400
21
243.01775147928996
31
0
0
LINE
8
VOLTA_INTERNA_RIFERIMENTO
62
5
10
3400
20
243.01775147928996
30
0
11
3410
21
241.53966212588494
31
0
0
LINE
8
VOLTA_INTERNA_RIFERIMENTO
62
5
10
3410
20
241.53966212588494
30
0
11
3420
21
239.97115558052968
31
0
0
LINE
8
VOLTA_INTERNA_RIFERIMENTO
62
5
10
3420
20
239.97115558052968
30
0
11
3430
21
238.30470398471803
31
0
0
LINE
8
VOLTA_INTERNA_RIFERIMENTO
62
5
10
3430
20
238.30470398471803
30
0
11
3440
21
236.5319794237963
31
0
0
LINE
8
VOLTA_INTERNA_RIFERIMENTO
62
5
10
3440
20
236.5319794237963
30
0
11
3450
21
234.6437496797343
31
0
0
LINE
8
VOLTA_INTERNA_RIFERIMENTO
62
5
10
3450
20
234.6437496797343
30
0
11
3460
21
232.62975778546712
31
0
0
TEXT
8
NOTE_NON_ESECUTIVO
62
7
10
2800
20
-290
30
0
40
18
1
C01 SEZIONE x=210 - RISERVE DI INGOMBRO
0
TEXT
8
NOTE_NON_ESECUTIVO
62
7
10
0
20
-340
30
0
40
18
1
NON ESECUTIVO - nessuna approvazione di struttura, isolamento, tiraggio o cottura
0
ENDSEC
0
EOF
