0
SECTION
2
HEADER
9
$ACADVER
1
AC1009
9
$INSUNITS
70
4
0
ENDSEC
0
SECTION
2
ENTITIES
0
LINE
8
PIANO_NOMINALE
62
5
10
0
20
0
30
0
11
790
21
0
31
0
0
LINE
8
PIANO_NOMINALE
62
5
10
790
20
0
30
0
11
790
21
410
31
0
0
LINE
8
PIANO_NOMINALE
62
5
10
790
20
410
30
0
11
0
21
410
31
0
0
LINE
8
PIANO_NOMINALE
62
5
10
0
20
410
30
0
11
0
21
0
31
0
0
LINE
8
AVANCORPO_CANDIDATO
62
8
10
0
20
-80
30
0
11
790
21
-80
31
0
0
LINE
8
AVANCORPO_CANDIDATO
62
8
10
790
20
-80
30
0
11
790
21
0
31
0
0
LINE
8
AVANCORPO_CANDIDATO
62
8
10
790
20
0
30
0
11
0
21
0
31
0
0
LINE
8
AVANCORPO_CANDIDATO
62
8
10
0
20
0
30
0
11
0
21
-80
31
0
0
LINE
8
FOCOLARE_MODIFICABILE
62
30
10
0
20
410
30
0
11
790
21
410
31
0
0
LINE
8
FOCOLARE_MODIFICABILE
62
30
10
790
20
410
30
0
11
650
21
660
31
0
0
LINE
8
FOCOLARE_MODIFICABILE
62
30
10
650
20
660
30
0
11
140
21
660
31
0
0
LINE
8
FOCOLARE_MODIFICABILE
62
30
10
140
20
660
30
0
11
0
21
410
31
0
0
CIRCLE
8
PIASTRE_NOMINALI
62
5
10
210
20
205
30
0
40
160
0
CIRCLE
8
PIASTRE_NOMINALI
62
5
10
580
20
205
30
0
40
160
0
CIRCLE
8
COLLARE_PROIEZIONE_TETTO
62
6
10
395
20
45
30
0
40
95
0
CIRCLE
8
CAMINO_PROIEZIONE_TETTO
62
6
10
395
20
45
30
0
40
65
0
LINE
8
PORTA_CANDIDATA
62
6
10
35
20
-80
30
0
11
755
21
-80
31
0
0
LINE
8
BOTOLA_CANDIDATA
62
30
10
245
20
660
30
0
11
545
21
660
31
0
0
TEXT
8
NOTE
62
7
10
0
20
-145
30
0
40
13
1
V4 - MILLIMETRI - GEOMETRIA INTERNA NOMINALE
0
TEXT
8
NOTE
62
7
10
0
20
-175
30
0
40
13
1
NON PROFILI DI TAGLIO / NON BASE ESTERNA
0
TEXT
8
NOTE
62
7
10
0
20
-205
30
0
40
13
1
CAMINO E COLLARE SONO PROIETTATI DAL TETTO
0
ENDSEC
0
EOF
